<?xml version="1.0" encoding="iso-8859-1"?>
<!-- Generator: Adobe Illustrator 19.0.0, SVG Export Plug-In . SVG Version: 6.00 Build 0)  -->
<svg version="1.1" id="Layer_1" xmlns="http://www.w3.org/2000/svg" xmlns:xlink="http://www.w3.org/1999/xlink" x="0px" y="0px"
	 viewBox="0 0 512 512" style="enable-background:new 0 0 512 512;" xml:space="preserve">
<g>
	<g>
		<path d="M423.673,51.219c-4.254-3.13-8.64-6.126-13.147-8.986c-0.926-1.002-2.115-1.749-3.451-2.14C364.59,14.133,311.734,0,256,0
			C192.754,0,133.207,18.19,88.327,51.219C42.744,84.766,17.64,129.59,17.64,177.436c0,3.107,1.88,5.903,4.757,7.074
			c2.215,0.903,49.298,19.473,173.425,24.263l-10.695,75.044c-0.013,0.092-0.024,0.182-0.034,0.273
			c-0.854,8.048,1.761,16.115,7.174,22.133c5.245,5.831,12.682,9.241,20.5,9.448l-24.722,155.262
			c-0.035,0.216-0.059,0.432-0.075,0.65c-0.754,10.406,2.889,20.756,9.995,28.395S215.129,512,225.563,512h59.742
			c10.433,0,20.493-4.382,27.599-12.021c7.107-7.64,10.75-17.99,9.996-28.396c-0.016-0.218-0.041-0.434-0.075-0.65l-24.737-155.361
			c7.165-0.637,13.886-3.958,18.735-9.348c5.412-6.016,8.029-14.084,7.175-22.132c-0.009-0.092-0.021-0.182-0.034-0.274
			l-10.715-75.185c110.384-4.972,172.641-22.986,175.636-23.87c3.247-0.958,5.476-3.941,5.476-7.327
			C494.359,129.591,469.256,84.766,423.673,51.219z M448.977,96.171c0.418,22.625-17.335,41.647-40.07,42.639
			c-23.087,1.032-42.698-16.958-43.706-40.048c-0.969-22.175,15.563-41.125,37.326-43.488
			C420.908,66.935,436.64,80.75,448.977,96.171z M196.26,23.524c0.612-0.798,1.036-1.678,1.292-2.59
			c13.696-2.705,27.909-4.486,42.509-5.239c0.453,0.682,1.019,1.305,1.705,1.831c14.2,10.891,16.891,31.306,5.999,45.506
			c-5.276,6.879-12.915,11.292-21.51,12.424c-8.591,1.134-17.116-1.149-23.996-6.427C188.059,58.139,185.368,37.726,196.26,23.524z
			 M307.681,472.991c0.366,6.169-1.745,12.046-5.964,16.581c-4.287,4.609-10.116,7.149-16.41,7.149h-59.742
			c-6.295,0-12.123-2.538-16.41-7.149c-4.219-4.535-6.33-10.413-5.963-16.581l25.046-157.299h54.397L307.681,472.991z
			 M305.462,296.005c-2.558,2.842-6.071,4.408-9.894,4.408h-82.047c-3.823,0-7.337-1.566-9.894-4.408
			c-2.529-2.811-3.717-6.423-3.352-10.18l10.82-75.928h7.367v39.182c0,4.22,3.421,7.64,7.64,7.64c4.219,0,7.64-3.42,7.64-7.64
			v-39.182h14.967v39.182c0,4.22,3.421,7.64,7.64,7.64s7.64-3.42,7.64-7.64v-39.182h14.968v39.182c0,4.22,3.419,7.64,7.64,7.64
			s7.64-3.42,7.64-7.64v-39.182h3.758l10.82,75.928C309.179,289.581,307.991,293.193,305.462,296.005z M212.627,165.813
			c-0.025-11.196,4.311-21.732,12.211-29.668c7.899-7.935,18.416-12.319,29.613-12.345c0.033,0,0.064,0,0.098,0
			c11.16,0,21.659,4.335,29.571,12.211c7.934,7.899,12.318,18.416,12.344,29.613c0.023,10.731-3.969,20.849-11.254,28.658
			c-9.334,0.216-18.953,0.334-28.861,0.334c-11.301,0-22.11-0.113-32.458-0.321C216.644,186.537,212.651,176.487,212.627,165.813z
			 M304.449,193.685c4.772-8.486,7.316-18.094,7.293-28.095c-0.035-15.278-6.016-29.629-16.844-40.408
			c-10.796-10.748-25.12-16.662-40.349-16.662c-0.044,0-0.089,0-0.132,0.001c-15.278,0.034-29.628,6.016-40.406,16.844
			c-18.459,18.541-21.533,46.667-9.29,68.42c-47.234-1.57-83.654-5.17-110.806-9.089c2.198-48.205,28.796-84.572,75.49-102.811
			c3.93-1.536,5.871-5.966,4.336-9.896c-1.535-3.93-5.965-5.871-9.896-4.337c-27.863,10.885-49.463,27.618-64.201,49.739
			c-12.534,18.812-19.54,40.624-20.909,64.93c-24.042-4.069-38.727-8.114-45.692-10.3c3.041-67.049,62.359-123.917,144.638-146.417
			c-7.705,19.35-2.041,42.264,15.279,55.55c8.422,6.46,18.517,9.868,28.956,9.868c2.101,0,4.218-0.138,6.337-0.418
			c12.641-1.667,23.877-8.156,31.638-18.273c13.127-17.113,12.832-40.356,0.811-57.01c45.739,0.691,88.133,11.439,123.168,29.318
			c-7.103,3.151-13.551,7.749-18.958,13.65c-10.322,11.265-15.64,25.873-14.973,41.137c1.339,30.665,26.713,54.705,57.114,54.702
			c0.836,0,1.68-0.018,2.525-0.055c24.541-1.072,44.835-17.54,51.962-39.657c10.304,17.69,16.412,36.973,17.4,57.187
			C460.794,176.192,399.436,189.973,304.449,193.685z"/>
	</g>
</g>
<g>
</g>
<g>
</g>
<g>
</g>
<g>
</g>
<g>
</g>
<g>
</g>
<g>
</g>
<g>
</g>
<g>
</g>
<g>
</g>
<g>
</g>
<g>
</g>
<g>
</g>
<g>
</g>
<g>
</g>
</svg>
