<?xml version="1.0" encoding="iso-8859-1"?>
<!-- Generator: Adobe Illustrator 18.0.0, SVG Export Plug-In . SVG Version: 6.00 Build 0)  -->
<!DOCTYPE svg PUBLIC "-//W3C//DTD SVG 1.1//EN" "http://www.w3.org/Graphics/SVG/1.1/DTD/svg11.dtd">
<svg version="1.1" id="Capa_1" xmlns="http://www.w3.org/2000/svg" xmlns:xlink="http://www.w3.org/1999/xlink" x="0px" y="0px"
	 viewBox="0 0 466.329 466.329" style="enable-background:new 0 0 466.329 466.329;" xml:space="preserve">
<g>
	<path d="M429.523,82.787c-5.77-42.304-56.119-67.287-71.413-73.937C329.929-3.403,255.148-0.294,182.829,2.71
		c-13.168,0.547-25.605,1.064-37.815,1.493c-42.861,1.504-69.915,21.664-85.063,38.312C43.56,60.527,37.339,78.121,37.082,78.861
		c-0.56,1.613-0.405,3.388,0.424,4.88c16.98,30.566,71.674,56.045,140.342,65.689c-5.99,26.117-14.208,74.763-0.638,102.947
		c4.194,8.711,7.436,21.629,9.478,36.962c-18.772-0.34-67.156,2.214-72.324,37.106c-2.433,16.421-0.162,28.12,6.748,34.771
		c4.833,4.651,10.455,5.486,13.869,5.486c0.644,0,1.205-0.03,1.672-0.07c-3.56,13.535-4.692,25.789-3.352,36.561
		c1.42,11.414,5.226,17.025,5.655,17.627c1.105,1.551,2.883,2.485,4.787,2.516l27.822,0.457c-1.853,5.751-1.112,11.91,2.21,17.711
		c8.357,14.593,30.747,23.849,59.894,24.76c1.378,0.043,2.738,0.064,4.095,0.064c26.422,0,49.601-8.353,63.593-22.916
		c10.182-10.598,15.251-24.008,14.66-38.779c-0.677-16.917-12.396-45.536-25.966-78.674
		c-14.754-36.029-31.476-76.865-32.194-101.289c-0.84-28.585,1.457-55.323,3.326-71.532c49.133-2.159,86.253-8.959,113.38-20.767
		c23.573-10.261,40.755-24.732,54.072-45.54C429.399,85.632,429.716,84.198,429.523,82.787z M69.153,50.232
		c19.739-21.502,45.403-32.954,76.28-34.037c12.249-0.43,24.706-0.948,37.894-1.496c67.658-2.811,144.347-5.997,169.998,5.156
		c26.037,11.32,54.862,31.865,62.665,57.175c-17.02,0.488-41.846,9.462-67.886,18.88c-19.31,6.983-39.275,14.204-52.882,16.381
		c-26.896,4.303-58.895-3.813-80.065-9.184c-5.116-1.298-9.534-2.419-13.282-3.222c-12.435-2.664-20.84,0.672-28.97,3.9
		c-6.318,2.509-12.853,5.103-22.493,5.67c-20.938,1.23-57.839-20.55-72.065-31.931c-8.086-6.469-17.113-7.26-24.392-6.299
		C57.282,65.304,62.228,57.776,69.153,50.232z M134.505,354.689c-1.356-0.076-3.452-0.503-5.169-2.213
		c-2.18-2.171-5.481-8.212-3.103-24.271c1.873-12.646,13.184-20.99,33.616-24.801c11.08-2.067,22.028-2.174,28.152-2.012
		c0.941,10.91,1.326,22.687,1.078,34.812c-0.073,3.556-0.198,7.065-0.371,10.522C159.047,337.606,140.269,349.967,134.505,354.689z
		 M151.706,358.456c7.854-3.082,20.008-5.012,36.159,0.624c-1.858,21.216-5.648,39.679-10.878,52.803l-17.397-0.286
		c-0.679-7.054-0.578-17.482-0.444-21.788c0.069-2.208-1.665-4.054-3.873-4.123c-2.25-0.087-4.053,1.665-4.123,3.873
		c-0.051,1.637-0.37,13.09,0.4,21.906l-4.011-0.066C145.2,405.539,141.096,388.908,151.706,358.456z M278.942,330.508
		c12.594,30.753,24.489,59.802,25.081,74.607c0.464,11.593-3.346,21.682-11.323,29.985c-0.731,0.76-1.494,1.5-2.287,2.22
		c0.846-34.632-11.009-63.81-11.567-65.163c-0.844-2.041-3.18-3.013-5.222-2.169c-2.042,0.842-3.015,3.18-2.174,5.222
		c0.139,0.335,13.221,32.627,10.653,68.233c-1.415,0.852-2.899,1.648-4.424,2.406c0.506-29.175-7.03-52.517-7.383-53.592
		c-0.69-2.1-2.953-3.242-5.049-2.552c-2.099,0.689-3.241,2.949-2.553,5.048c0.086,0.26,8.071,25.003,6.876,54.525
		c-9.383,3.292-20.2,5.052-31.809,5.052c-1.231,0-2.469-0.02-3.72-0.059c-18.38-0.574-42.465-5.824-49.854-18.729
		c-1.971-3.441-2.125-6.735-0.48-9.75c21.253-38.255,23.673-138.416,4.315-178.62c-14.794-30.725,0.886-93.715,4.968-108.742
		c8.286-1.926,16.777-2.901,25.289-2.901c11.023,0,21.906,1.615,32.424,4.809c-1.795,12.583-5.963,46.617-4.843,84.687
		C246.642,251.627,263.063,291.727,278.942,330.508z M369.771,121.37c-25.387,11.051-60.452,17.501-107.038,19.687
		c0.348-2.426,0.57-3.78,0.582-3.853c0.479-2.878-1.183-5.685-3.938-6.648l-0.087-0.031c-13.211-4.643-27.009-6.996-41.012-6.996
		c-10.682,0-21.333,1.386-31.66,4.12c-2.02,0.535-3.616,2.083-4.214,4.085c-0.145,0.487-0.769,2.608-1.664,5.976
		c-59.937-8.245-109.802-29.249-128.797-53.883c5.24-1.308,12.772-1.841,18.907,3.068c13.896,11.117,52.052,34.61,77.921,34.608
		c0.793,0,1.577-0.022,2.346-0.067c11.568-0.681,19.351-3.771,26.217-6.497c7.635-3.031,13.152-5.223,22.027-3.32
		c3.528,0.756,7.846,1.852,12.845,3.12c17.63,4.473,42.435,10.767,66.636,10.766c6.173,0,12.313-0.41,18.277-1.364
		c14.726-2.356,34.32-9.443,55.066-16.946c21.241-7.682,44.727-16.171,60.022-17.893C401.2,103.434,387.763,113.537,369.771,121.37z
		"/>
	<path d="M212.981,174.831c0.633-2.115-0.567-4.344-2.683-4.979c-2.117-0.633-4.346,0.566-4.98,2.682
		c-0.508,1.691-12.257,41.786,2.166,74.753c0.657,1.502,2.126,2.397,3.667,2.397c0.535,0,1.079-0.108,1.602-0.336
		c2.023-0.885,2.946-3.244,2.062-5.268C201.584,213.843,212.865,175.217,212.981,174.831z"/>
</g>
<g>
</g>
<g>
</g>
<g>
</g>
<g>
</g>
<g>
</g>
<g>
</g>
<g>
</g>
<g>
</g>
<g>
</g>
<g>
</g>
<g>
</g>
<g>
</g>
<g>
</g>
<g>
</g>
<g>
</g>
</svg>
