<?xml version="1.0" encoding="iso-8859-1"?>
<!-- Generator: Adobe Illustrator 19.0.0, SVG Export Plug-In . SVG Version: 6.00 Build 0)  -->
<svg version="1.1" id="Layer_1" xmlns="http://www.w3.org/2000/svg" xmlns:xlink="http://www.w3.org/1999/xlink" x="0px" y="0px"
	 viewBox="0 0 511.999 511.999" style="enable-background:new 0 0 511.999 511.999;" xml:space="preserve">
<g>
	<g>
		<path d="M456.251,178.772c-8.84-17.748-21.204-33.431-36.27-46.139c-0.18-2.4-0.693-4.77-1.552-7.015
			c-4.029-10.599-9.051-20.95-14.931-30.766c-17.011-28.384-41.136-52.149-69.765-68.728C304.216,9.034,270.487,0,236.192,0
			c-40.311,0-78.995,12.197-111.869,35.273c-32.129,22.552-56.466,53.791-70.379,90.341c-4.544,11.946,0.626,25.38,12.027,31.25
			c35.998,18.536,74.55,30.977,114.586,36.974c4.447,0.664,8.967,1.247,13.507,1.759c0.208,2.906,0.8,5.806,1.801,8.637
			c0.803,2.275,1.843,4.415,3.081,6.41v212.774c0,9.946,3.873,19.296,10.906,26.329c7.032,7.032,16.383,10.905,26.328,10.905
			c20.538,0,37.247-16.703,37.247-37.234V242.507c7.399,1.462,14.867,2.622,22.4,3.465v235.033c0,8.279,3.224,16.062,9.078,21.915
			c5.855,5.856,13.638,9.079,21.918,9.079c17.098,0,31.008-13.905,31.008-30.995v-235.03c28.67-3.212,56.432-10.897,82.855-22.99
			c8.073-3.695,14.153-10.353,17.12-18.747C460.783,195.808,460.231,186.766,456.251,178.772z M197.687,178.254
			c-4.884-0.529-9.747-1.148-14.519-1.862c-38.126-5.712-74.84-17.559-109.123-35.212c-3.407-1.755-4.962-5.749-3.613-9.29
			c12.654-33.242,34.792-61.658,64.024-82.176c29.892-20.982,65.07-32.072,101.735-32.072c31.195,0,61.867,8.213,88.7,23.75
			c26.047,15.082,47.998,36.705,63.473,62.527c2.27,3.789,4.39,7.672,6.37,11.617c-20.819-11.098-44.082-16.928-67.9-16.928
			c-27.391,0-54.053,7.701-77.103,22.271C227.479,134.945,209.498,154.779,197.687,178.254z M255.784,423.419
			c0,10.804-8.796,19.593-19.606,19.593c-5.232,0-10.153-2.038-13.854-5.739c-3.7-3.7-5.738-8.62-5.738-13.853V224.573
			c12.778,5.631,25.858,10.25,39.198,13.831V423.419z M340.188,481.004c0,7.364-5.997,13.353-13.366,13.353
			c-3.567,0-6.92-1.389-9.442-3.912c-2.524-2.523-3.912-5.876-3.912-9.442V247.378c4.437,0.211,8.892,0.332,13.366,0.332
			c4.47,0,8.921-0.121,13.353-0.332V481.004z M441.171,198.357c-1.36,3.847-4.141,6.897-7.828,8.584
			c-33.526,15.346-69.362,23.127-106.51,23.127c-37.148,0-72.984-7.781-106.509-23.127c-3.689-1.689-6.47-4.737-7.829-8.586
			c-1.371-3.881-1.118-8.043,0.713-11.72c21.624-43.417,65.162-70.387,113.624-70.387c48.464,0,92.003,26.97,113.624,70.387
			C442.29,190.314,442.543,194.476,441.171,198.357z"/>
	</g>
</g>
<g>
</g>
<g>
</g>
<g>
</g>
<g>
</g>
<g>
</g>
<g>
</g>
<g>
</g>
<g>
</g>
<g>
</g>
<g>
</g>
<g>
</g>
<g>
</g>
<g>
</g>
<g>
</g>
<g>
</g>
</svg>
